<?xml version="1.0" encoding="UTF-8"?>
<svg id="Layer_1" xmlns="http://www.w3.org/2000/svg" version="1.1" viewBox="0 0 1501.8 413.4">
  <!-- Generator: Adobe Illustrator 29.6.1, SVG Export Plug-In . SVG Version: 2.1.1 Build 9)  -->
  <g>
    <path d="M1214.7,164c-8.3,0-14.4-2.2-18.4-6.5-4-4.3-5.9-9.8-5.9-16.4s2-12.4,5.9-16.7c4-4.3,10.1-6.5,18.4-6.5s14.4,2.2,18.4,6.5c4,4.3,5.9,9.9,5.9,16.7s-2,12.1-5.9,16.4c-4,4.3-10.1,6.5-18.4,6.5Z"/>
    <g>
      <path d="M863.6,180.5c-12.1-7.9-26.9-11.8-44.4-11.8s-25.3,2.3-35.8,7c-10.5,4.7-19.3,11-26.3,19-7.1,8-12.5,17-16.2,27.1-3.7,10.1-5.5,20.6-5.5,31.6v6c0,10.6,1.8,20.9,5.5,31,3.7,10.1,9.1,19.2,16.3,27.4,7.2,8.2,16.1,14.7,26.8,19.4,10.7,4.8,23,7.2,37,7.2s25.9-2.4,36.5-7.3c10.6-4.9,19.3-11.6,26.3-20.2,7-8.6,11.7-18.4,14.1-29.3h-44c-2,5-5.8,9.2-11.4,12.6-5.6,3.4-12.8,5.1-21.5,5.1s-17.4-2-23.3-6c-6-4-10.4-9.6-13.2-16.9-1.6-4-2.7-8.5-3.3-13.3h119.7v-16.2c0-15-3.2-28.8-9.6-41.4-6.4-12.7-15.6-22.9-27.7-30.8ZM784.8,229.9c3-7.3,7.4-12.8,13.2-16.5,5.8-3.7,12.9-5.5,21.2-5.5s15,1.8,20.5,5.5c5.5,3.7,9.6,9,12.3,15.9,1.4,3.7,2.5,7.8,3.2,12.4h-73.6c.7-4.3,1.8-8.3,3.3-11.8Z"/>
      <path d="M1022.1,169.3h-2.1c-12.6,0-23.2,2.8-32,8.4-8.8,5.6-15.3,14-19.6,25.1-1.5,4-2.8,8.3-3.7,13v-41.4h-38.3v164h48.2v-95.5c0-9.2,2.7-16.6,8.2-22.1,5.5-5.6,12.7-8.4,21.7-8.4s15.7,2.7,20.8,8.2c5.1,5.5,7.6,12.6,7.6,21.4v96.4h48.2v-93.7c0-25.3-5-44.2-15.1-56.7-10.1-12.5-24.7-18.7-43.8-18.7Z"/>
      <path d="M1165.4,130.1h-44.6v44.3h-25.1v35.3h25v64.6c-.1,16.6,2.3,29.7,7,39.3,4.8,9.7,12.3,16.6,22.4,20.8,10.2,4.2,23.5,6.3,40.1,6.3h23v-40.7h-24.2c-7.6,0-13.4-2-17.5-6.1-4.1-4.1-6.1-10-6.1-17.8v-66.4h47.9v-35.3h-47.9v-44.3Z"/>
      <polygon points="1301.3 174.4 1253.1 174.4 1253.1 174.4 1242.9 174.4 1231.5 209.9 1253.1 209.9 1253.1 338.4 1301.3 338.4 1301.3 210 1301.3 210 1301.3 174.4 1301.3 174.4 1301.3 174.4"/>
      <path d="M1439.2,275.8c-.8,5.4-2.5,10.1-5.1,14.2-2.6,4.1-6.1,7.3-10.6,9.6-4.5,2.3-9.9,3.4-16.3,3.4s-15.5-1.9-20.8-5.8c-5.3-3.9-9.1-9.4-11.5-16.5-2.4-7.1-3.6-15-3.6-23.8s1.3-17.6,3.9-24.7c2.6-7.1,6.5-12.6,11.8-16.6,5.3-4,11.9-6,19.9-6s16.7,2.5,21.8,7.6c5.2,5.1,8.2,11.4,9,19h47c-.8-13.4-4.6-25.1-11.4-35.3-6.8-10.2-15.9-18.1-27.2-23.8-11.4-5.7-24.4-8.5-39.2-8.5s-25.6,2.3-36.1,6.9c-10.5,4.6-19.3,10.9-26.3,18.9-7.1,8-12.4,17.1-16,27.4-3.6,10.3-5.4,21-5.4,32.2v5.7c0,10.8,1.7,21.2,5.2,31.3,3.5,10.1,8.7,19.1,15.7,27.1,7,8,15.7,14.4,26,19.1,10.4,4.8,22.7,7.2,37.1,7.2s27.9-2.9,39.5-8.7c11.6-5.8,20.8-13.8,27.8-24.1,7-10.3,10.8-22.2,11.4-35.8h-46.7Z"/>
      <path d="M610.8,116.5l-14.2,44.4h63.6l1,.7c1.8,1.3,2.4,2.5,2.4,4.7,0,13.7-.2,27.7-.3,40-.2,17-.5,36.3-.2,54.7v.5c-2.4,25.5-24.4,39.2-43.9,39.2s-28.8-8.5-35.2-22.8c-6.9-15.4-1.9-29,3.2-39.2l2.2-4.4h-48l-.8,1.9c-7.6,19-7.4,40.2.5,59.6,8.6,21.1,25.6,37.7,46.5,45.7,10.2,3.9,20.8,5.8,31.4,5.8,23,0,45.2-9,62.6-25.3,17.6-16.5,28.2-38.7,29.9-62.5h0c0-.1,0-143,0-143h-100.9Z"/>
    </g>
  </g>
  <g>
    <path d="M412.8,29.5c-12.8-1.8-27.5,16.2-40.2,48.6-14.6,37.4-29.4,74.9-45.1,111.2v.3c-.1,0-8.9,20.6-8.9,20.6h0s-.3.7-.3.7c-6.5,15.4-28,66-34.9,82.2-4.6,10.8-9.5,21.3-14.8,31.3,0,0,0,0,0,0h0c0,0,0,.1,0,.2-3.7,6.9-7.7,13.4-12,19-30,38.8-70.2,49.1-99.6,50.8-44.2.7-102.8-17.2-127.3-83.2-11.6-30-14.4-66.2-13.5-101.1h203.5s-8.2,18.9-8.2,18.9l-1.7,3.8-17.1.5c-14.9.4-29.3.2-44.4.9-13.3.6-25.9-.4-36.3,11.4-4.1,4.7-6.9,10.4-8.3,16.5s-.8,14.7,3.3,24.9c8.5,18.9,25.9,30.3,46.6,30.3s1.3,0,1.9,0c11.7-.4,23.9-4.5,34-12,8.9-6.6,15.6-16.9,20.8-28.3l13.1-32.7,83.2-196.4h0c0,0,0,0,0,0,2.1-5.4,4.3-10.7,6.4-16.1,0,0,0-.1,0-.2,3.8-9.3,8.1-9.4,8.2-9.4,0,0,13.7-3.4,43-3.4s44.3,2.4,45.1,2.9c.7.5,3.7.9,3.7,7.8Z"/>
    <path d="M473.1,210.3h-.2l-11-34.7v-.3c0,0-11.6-36.5-11.6-36.5h0s-21.5-68.1-21.5-68.1c-4.1-12.1-7.5-24.6-17.4-22.5-17.4,3.8-27.4,32.8-35.8,55.7-2,5.4-4.1,11.3-5.2,17.7l2.6,3.2,69.4,85.4.8.9h-107.8c0,0-.1.2-.1.2l-7.9,18.1-1.7,3.9h154.8l-7.4-23.2ZM450.1,226.3h0s0,0,0,0h0Z"/>
  </g>
</svg>