<?xml version="1.0" encoding="UTF-8"?>
<svg id="Layer_1" xmlns="http://www.w3.org/2000/svg" version="1.1" viewBox="0 0 1500 1074.3">
  <!-- Generator: Adobe Illustrator 29.6.1, SVG Export Plug-In . SVG Version: 2.1.1 Build 9)  -->
  <g>
    <path d="M1085.8,39.3c-22.4-3.1-48.1,28.4-70.3,85-25.6,65.5-51.6,131.2-79,194.8l-.3.6-15.4,36.2h0c0,0-.5,1.2-.5,1.2-11.4,26.9-49.1,115.5-61.1,144-8.1,19-16.7,37.3-25.9,54.8,0,0,0,0,0,.1h0c0,.1-.1.2-.2.3-6.4,12.1-13.4,23.4-21.1,33.3-52.5,68-123,86-174.4,88.9-77.4,1.3-180-30.1-222.9-145.7-20.3-52.5-25.3-116-23.7-177h356.3c0,0-14.4,33-14.4,33l-2.9,6.7-30,.8c-26,.7-51.4.3-77.8,1.6-23.3,1.1-45.3-.8-63.6,20s-12.1,18.3-14.6,29c-3.5,14.8-1.4,25.8,5.8,43.7,14.9,33.2,45.4,53,81.6,53s2.2,0,3.3,0c20.5-.7,41.9-7.8,59.6-21,15.6-11.6,27.3-29.6,36.4-49.6l22.9-57.3,145.8-343.9h0c0,0,0-.1,0-.1,3.7-9.4,7.5-18.8,11.2-28.3,0-.1,0-.2.1-.3,6.7-16.3,14.2-16.4,14.3-16.4,0,0,24-6,75.2-6s77.6,4.1,79,5c1.3.9,6.5,1.6,6.4,13.6Z"/>
    <path d="M1191.4,355.9h-.3l-19.2-60.8-.2-.5-20.2-63.9h0c0,0-37.6-119.2-37.6-119.2-7.1-21.1-13.1-43-30.5-39.4-30.4,6.7-48,57.5-62.7,97.5-3.5,9.5-7.1,19.9-9.1,31l4.6,5.7,121.6,149.6,1.3,1.6h-165.5l-23.3-.2-.2.5-13.8,31.7-3,6.8h271.1l-13-40.6ZM1151.2,384.1h0c0,0,.1,0,.1,0h-.1Z"/>
  </g>
  <g>
    <path d="M1152.6,761.9c-13.9,0-24.1-3.6-30.7-10.9-6.6-7.2-9.9-16.4-9.9-27.5s3.3-20.7,9.9-27.9c6.6-7.2,16.9-10.9,30.7-10.9s24.1,3.6,30.7,10.9c6.6,7.2,9.9,16.6,9.9,27.9s-3.3,20.3-9.9,27.5c-6.6,7.2-16.9,10.9-30.7,10.9Z"/>
    <g>
      <path d="M522.4,796.3c-18.6-12.2-41.5-18.2-68.6-18.2s-39,3.6-55.2,10.9c-16.2,7.2-29.7,17-40.6,29.3-10.9,12.3-19.2,26.3-24.9,41.8-5.7,15.6-8.5,31.8-8.5,48.7v9.2c0,16.3,2.8,32.3,8.5,47.8,5.7,15.6,14.1,29.6,25.2,42.3,11.1,12.6,24.9,22.6,41.3,30,16.5,7.4,35.5,11.1,57,11.1s40-3.8,56.3-11.3c16.3-7.5,29.9-17.9,40.6-31.2,10.8-13.2,18-28.3,21.7-45.3h-67.9c-3.1,7.7-8.9,14.2-17.5,19.4-8.6,5.2-19.7,7.9-33.3,7.9s-26.8-3.1-36-9.2c-9.2-6.2-16-14.9-20.3-26.1-2.4-6.2-4.1-13.1-5.2-20.6h184.8v-24.9c0-23.1-4.9-44.4-14.8-64-9.9-19.5-24.1-35.4-42.7-47.6ZM400.7,872.5c4.6-11.2,11.4-19.7,20.3-25.4,8.9-5.7,19.9-8.5,32.8-8.5s23.2,2.8,31.6,8.5c8.5,5.7,14.8,13.9,18.9,24.5,2.2,5.7,3.8,12.1,4.9,19.2h-113.6c1.2-6.7,2.8-12.8,5.1-18.2Z"/>
      <path d="M766.9,779h-3.2c-19.4,0-35.9,4.3-49.4,12.9-13.6,8.6-23.6,21.6-30.2,38.8-2.3,6.1-4.3,12.8-5.8,20v-63.9h-59.1v253.1h74.4v-147.3c0-14.2,4.2-25.6,12.7-34.2,8.5-8.6,19.6-12.9,33.5-12.9s24.2,4.2,32.1,12.7c7.9,8.5,11.8,19.5,11.8,33v148.7h74.4v-144.6c0-39.1-7.8-68.3-23.3-87.5-15.6-19.2-38.1-28.9-67.7-28.9Z"/>
      <path d="M988.1,718.5h-68.8v68.4h-38.8v54.5h38.5l-.2,99.8c0,25.6,3.7,45.8,11.1,60.7,7.4,14.9,18.9,25.6,34.6,32.1,15.7,6.5,36.3,9.7,61.9,9.7h35.6v-62.8h-37.4c-11.7,0-20.7-3.2-27-9.5-6.3-6.3-9.5-15.5-9.5-27.5v-102.5h73.9v-54.5h-73.9v-68.4Z"/>
      <polygon points="1197.9 786.8 1123.5 786.8 1123.5 786.8 1107.6 786.8 1090.1 841.5 1123.5 841.5 1123.5 1039.9 1197.9 1039.9 1197.9 841.8 1197.9 841.8 1197.9 786.8 1197.9 786.8 1197.9 786.8"/>
      <path d="M1410.7,943.4c-1.2,8.3-3.9,15.6-7.9,21.9-4,6.3-9.5,11.2-16.4,14.8-6.9,3.5-15.3,5.3-25.2,5.3s-23.9-3-32.1-9c-8.2-6-14.1-14.5-17.8-25.4-3.7-10.9-5.5-23.2-5.5-36.7s2-27.2,6-38.1c4-10.9,10.1-19.5,18.2-25.6,8.2-6.2,18.4-9.2,30.7-9.2s25.7,3.9,33.7,11.8c8,7.9,12.6,17.6,13.9,29.3h72.5c-1.2-20.6-7.1-38.8-17.5-54.5-10.5-15.7-24.5-27.9-42-36.7-17.5-8.8-37.7-13.2-60.5-13.2s-39.5,3.5-55.6,10.6c-16.2,7.1-29.7,16.8-40.6,29.1-10.9,12.3-19.2,26.4-24.7,42.3-5.5,15.9-8.3,32.4-8.3,49.6v8.8c0,16.6,2.7,32.7,8.1,48.3,5.4,15.6,13.5,29.5,24.2,41.8,10.8,12.3,24.2,22.2,40.2,29.6,16,7.4,35.1,11.1,57.3,11.1s43.1-4.5,61-13.4c17.9-8.9,32.2-21.3,42.9-37.2,10.8-15.9,16.6-34.2,17.6-55.2h-72Z"/>
      <path d="M132.2,697.4l-21.9,68.6h98.2l1.5,1.1c2.7,2,3.7,3.9,3.7,7.2,0,21.2-.2,42.7-.5,61.7-.4,26.2-.8,56-.3,84.4v.7c-3.7,39.3-37.6,60.5-67.7,60.5s-44.4-13.2-54.3-35.3c-10.7-23.7-2.9-44.8,5-60.4l3.4-6.8H25.3l-1.2,2.9c-11.7,29.3-11.4,62,.8,92,13.3,32.5,39.4,58.2,71.8,70.5,15.7,5.9,32,9,48.5,9,35.4,0,69.8-13.9,96.7-39.1,27.2-25.4,43.5-59.7,46.1-96.4v-.2s0-220.5,0-220.5h-155.8Z"/>
    </g>
  </g>
</svg>